<svg preserveAspectRatio="none" width="100%" height="100%" overflow="visible" style="display: block;" viewBox="0 0 6.27639 10.4733" fill="none" xmlns="http://www.w3.org/2000/svg">
<g id="clip-path-2">
<path id="Vector" d="M0 2.19768V7.30909C0 7.86543 0.452399 8.01085 1.00601 8.01085C1.55963 8.01085 2.01199 7.86543 2.01199 7.30909V2.204C2.01482 2.14433 2.02332 2.08506 2.03732 2.02699C2.24577 2.05663 2.44779 2.12072 2.63519 2.21664C3.51148 2.72241 4.2644 3.79716 4.2644 4.66329V9.77156C4.2644 10.3279 4.7168 10.4733 5.27042 10.4733C5.82403 10.4733 6.27639 10.3279 6.27639 9.77156V4.65065C6.27639 3.20289 5.1154 1.31575 3.6412 0.465426C2.71746 -0.0687919 1.86646 -0.0972414 1.2559 0.149321C0.53146 0.443298 0.00316351 1.1166 0 2.19768Z" fill="var(--fill-0, black)"/>
</g>
</svg>
