<svg preserveAspectRatio="none" width="100%" height="100%" overflow="visible" style="display: block;" viewBox="0 0 15.2408 18.1205" fill="none" xmlns="http://www.w3.org/2000/svg">
<path id="Vector" d="M12.1735 1.35031C9.93055 -0.546316 7.20677 -0.13854 4.58106 0.718104C2.30017 1.45463 0.0730606 3.87916 0.00662695 6.11402C-0.0629702 8.25089 0.405229 10.824 1.90473 12.8249C2.58489 13.7322 5.34346 19.2008 5.55542 17.93C6.12485 14.5256 4.45768 14.9839 5.46684 12.297C5.67247 11.7533 6.41589 13.2453 6.8398 13.062C6.58356 11.1243 5.83065 8.18135 6.8398 7.64397C10.1741 5.87062 12.6607 8.88942 15.027 5.5798C16.0203 4.17313 13.2934 2.30179 12.1735 1.35031Z" fill="url(#paint0_linear_0_125)"/>
<defs>
<linearGradient id="paint0_linear_0_125" x1="13.0441" y1="-6.47717" x2="-3.0054" y2="36.188" gradientUnits="userSpaceOnUse">
<stop stop-color="#EB4800"/>
<stop offset="0.58" stop-color="#B31A00"/>
<stop offset="1" stop-color="#990400"/>
</linearGradient>
</defs>
</svg>
