<svg preserveAspectRatio="none" width="100%" height="100%" overflow="visible" style="display: block;" viewBox="0 0 101.318 170.242" fill="none" xmlns="http://www.w3.org/2000/svg">
<path id="Vector" d="M7.45055 1.53311V72.2964C7.45055 72.8116 7.45055 75.7925 7.45055 76.8293C7.45055 93.7662 19.3707 114.392 34.0493 122.861C34.758 123.267 35.4581 123.64 36.1499 123.98C36.4513 124.212 36.7684 124.423 37.099 124.612L101.318 161.656V170.242L29.6489 128.908C29.3176 128.72 29.0004 128.509 28.6998 128.275C28.007 127.937 27.3047 127.567 26.5993 127.156C11.9174 118.688 0.000492635 98.0748 0.000492635 81.1252C0.000492635 80.0884 0.0437284 79.0916 0.130198 78.1348C0.038244 77.6259 -0.00518626 77.1094 0.000492635 76.5923V5.80685H2.07259C3.38303 4.22322 4.9826 2.90274 6.78622 1.9156C7.0045 1.77335 7.22594 1.65007 7.45055 1.53311ZM10.9304 0C10.4214 0.468447 9.94971 0.975742 9.51949 1.5173H7.47586C8.59004 0.930582 9.74445 0.423547 10.9304 0Z" fill="var(--fill-0, #0057B8)"/>
</svg>
