<svg preserveAspectRatio="none" width="100%" height="100%" overflow="visible" style="display: block;" viewBox="0 0 41.1557 49.5173" fill="none" xmlns="http://www.w3.org/2000/svg">
<g id="cone">
<path id="screen" d="M0.000416649 37.6276C0.000416649 38.4115 0.528723 39.2081 1.58217 39.8118L17.444 48.6059C19.5129 49.8008 22.822 49.8229 24.8529 48.6597L39.6677 40.2639C40.6863 39.6759 41.183 38.8951 41.1545 38.1144V34.7668L40.4079 35.1999C40.1596 34.9535 39.8799 34.7409 39.5759 34.5677L23.7584 25.4006C21.6894 24.2057 18.3804 24.1836 16.3494 25.3469L1.50625 34.0903C1.25998 34.2305 1.02887 34.3958 0.816607 34.5835L0.01624 34.1219V37.5991L0.000416649 37.6276Z" fill="var(--fill-0, #FC9307)"/>
<path id="rectangle" d="M24.8498 45.192C22.8283 46.3584 19.5098 46.3363 17.4408 45.1414L1.579 36.3442C-0.489931 35.1493 -0.53105 33.2369 1.48727 32.0704L16.3336 23.327C18.3519 22.1606 21.6704 22.1858 23.7425 23.3775L39.5601 32.5446C41.629 33.7395 41.6702 35.6551 39.6487 36.8183L24.834 45.2078L24.8498 45.192Z" fill="var(--fill-0, #FDB75B)"/>
<path id="Vector" d="M32.8028 30.4235C33.9512 32.8702 32.8629 35.595 29.5381 37.5138C24.5935 40.3587 16.5677 40.3587 11.62 37.5138C8.29515 35.595 7.2069 32.8702 8.35526 30.4235L16.5139 2.35026H24.6442L32.8028 30.4235Z" fill="var(--fill-0, #FC9208)"/>
<path id="Vector_2" d="M17.6971 0.687529C19.2788 -0.229176 21.8698 -0.229176 23.4578 0.687529C25.0459 1.60423 25.0396 3.09306 23.4578 4.01292C21.8761 4.93279 19.2883 4.92963 17.6971 4.01292C16.1058 3.09622 16.109 1.60423 17.6971 0.687529Z" fill="var(--fill-0, #FDB75B)"/>
<path id="Vector_3" d="M27.5862 12.5257L29.9114 20.52C29.5398 20.8274 29.1418 21.1013 28.7219 21.3387C24.2203 23.9339 16.9094 23.9339 12.4077 21.3387C11.9888 21.1014 11.5918 20.8274 11.2214 20.52L13.5434 12.5257C13.7632 12.6912 13.9936 12.8422 14.233 12.9777C17.7129 14.9945 23.4072 14.9945 26.8871 12.9777C27.1256 12.8407 27.3559 12.6897 27.5767 12.5257H27.5862Z" fill="var(--fill-0, #FF1500)"/>
<path id="Vector_4" d="M19.1396 1.5189C19.5857 1.29286 20.0789 1.17505 20.579 1.17505C21.0792 1.17505 21.5724 1.29286 22.0184 1.5189C22.8125 1.97725 22.8125 2.72323 22.0184 3.18158C21.5724 3.40763 21.0792 3.52543 20.579 3.52543C20.0789 3.52543 19.5857 3.40763 19.1396 3.18158C18.3456 2.72323 18.3456 1.97725 19.1396 1.5189Z" fill="var(--fill-0, #A52200)"/>
</g>
</svg>
