<svg preserveAspectRatio="none" width="100%" height="100%" overflow="visible" style="display: block;" viewBox="0 0 8.29487 91.6594" fill="none" xmlns="http://www.w3.org/2000/svg">
<path id="Vector" d="M0.373292 1.51019H0V89.0871C0 89.7446 0.404918 90.4053 1.21478 90.9079C2.83449 91.9099 5.46338 91.9099 7.07993 90.9079C7.89928 90.399 8.3042 89.732 8.29471 89.065V76.5251C8.29471 77.1763 7.8803 77.8274 7.07993 78.3237C5.46338 79.3289 2.83449 79.3289 1.21478 78.3237C0.404918 77.8211 0 77.1636 0 76.5061V1.51019H0.373292ZM1.19896 0.75154C2.81868 -0.250513 5.44757 -0.250513 7.06412 0.75154C5.45389 -0.247352 2.81868 -0.247349 1.19896 0.754704V0.75154Z" fill="var(--fill-0, #0057B8)"/>
</svg>
