<svg preserveAspectRatio="none" width="100%" height="100%" overflow="visible" style="display: block;" viewBox="0 0 40.5833 52.3171" fill="none" xmlns="http://www.w3.org/2000/svg">
<path id="Vector" d="M6.2782 50.9504C2.48199 48.8072 0.0745642 44.2047 0.00180352 37.674C-0.146881 24.7136 8.91657 9.02536 20.2261 2.66848C25.873 -0.492566 31.0169 -0.754933 34.7783 1.40406L34.9048 1.48309L34.9364 1.50206C37.7836 3.2027 39.7829 6.3037 40.5833 10.5774C40.5833 10.5774 31.9058 5.5798 31.001 5.07088C28.0558 3.99612 24.3577 4.40075 20.2989 6.67039C10.9539 11.9209 3.46269 24.8843 3.58606 35.5971C3.64933 41.0784 5.6898 44.9159 8.9229 46.6608L17.0341 51.3423C12.9216 52.7901 9.20762 52.591 6.31301 50.9725L6.2782 50.9504Z" fill="var(--fill-0, #0057B8)"/>
</svg>
