<svg preserveAspectRatio="none" width="100%" height="100%" overflow="visible" style="display: block;" viewBox="0 0 40.6054 52.3241" fill="none" xmlns="http://www.w3.org/2000/svg">
<path id="Vector" d="M6.28138 50.9504C2.48517 48.8072 0.0745642 44.2047 0.00180352 37.674C-0.146881 24.7137 8.91657 9.0222 20.2293 2.66848C25.873 -0.492566 31.02 -0.754933 34.7814 1.40406H34.7972L34.9238 1.48309L34.9586 1.50522C37.7899 3.20587 39.8051 6.30686 40.6054 10.5774C40.6054 10.5774 31.9248 5.57981 31.02 5.07404C28.0748 3.99612 24.3766 4.40074 20.321 6.67353C10.9729 11.924 3.48483 24.8843 3.60504 35.6003C3.66831 41.0816 5.71194 44.9191 8.94188 46.664L17.0563 51.3424C12.9437 52.7933 9.22976 52.6068 6.33199 50.9757L6.28771 50.9504H6.28138Z" fill="var(--fill-0, #0057B8)"/>
</svg>
