<svg preserveAspectRatio="none" width="100%" height="100%" overflow="visible" style="display: block;" viewBox="0 0 56.194 25.4307" fill="none" xmlns="http://www.w3.org/2000/svg">
<path id="Vector" d="M56.1934 9.11648C56.2409 13.3017 53.4981 17.4964 47.9683 20.6891C37.0004 27.0112 19.1804 27.0112 8.22512 20.6891C2.74909 17.528 0 13.3776 0 9.23027V9.21131V9.06906V9.03113C0.0569432 5.87007 1.70829 2.70902 4.95405 0C4.95405 0 4.95406 9.5938 4.97304 10.5864C5.50451 13.5451 7.6715 16.4311 11.5911 18.6945C20.6545 23.9292 35.3712 23.9292 44.4346 18.6945C49.0723 16.0171 51.3374 12.483 51.2299 8.96791V0C54.4883 2.7185 56.1396 5.88904 56.1839 9.06906V9.11648H56.1934Z" fill="var(--fill-0, #E7223A)"/>
</svg>
