<svg preserveAspectRatio="none" width="100%" height="100%" overflow="visible" style="display: block;" viewBox="0 0 14.2345 18.1862" fill="none" xmlns="http://www.w3.org/2000/svg">
<path id="Vector" d="M14.1938 2.78163C14.1938 2.78163 14.6652 4.42853 12.4001 5.79726C10.6254 6.87518 10.7804 9.74542 10.8816 10.3018C10.9829 10.8581 11.5776 13.3806 11.3625 13.7094C10.9386 14.3416 9.43909 12.4228 8.74944 12.5682C6.9937 12.9413 7.71497 14.5724 9.35366 16.2635C11.0904 18.0653 6.62356 18.903 4.51667 17.4331C3.39046 16.6523 2.98553 16.1687 1.47337 13.3237C-0.712611 9.17326 -0.918239 4.1314 4.00418 1.34019C8.9266 -1.45102 12.6975 0.657393 14.2065 2.7753L14.1938 2.78163Z" fill="var(--fill-0, #414141)"/>
</svg>
