<svg preserveAspectRatio="none" width="100%" height="100%" overflow="visible" style="display: block;" viewBox="0 0 13.8932 10.4523" fill="none" xmlns="http://www.w3.org/2000/svg">
<path id="Vector" d="M11.6819 10.2753C11.8897 10.2499 12.0907 10.1844 12.2735 10.0825C12.7575 9.78877 13.1597 9.37791 13.4428 8.88785C13.7259 8.39778 13.8808 7.84431 13.8932 7.27859C13.8887 7.0689 13.8447 6.86192 13.7635 6.66851L13.8679 6.4915L2.82724 0.12198C2.63665 0.0298978 2.42543 -0.0112254 2.21418 0.00262539C2.00293 0.0164762 1.79887 0.0848277 1.62195 0.201006C1.13755 0.493518 0.735038 0.903672 0.451851 1.39334C0.168665 1.883 0.0140006 2.43627 0.00223313 3.00169C-0.0107512 3.21509 0.0330581 3.42812 0.129187 3.61911C0.225315 3.81011 0.370348 3.97227 0.549533 4.0891L11.5775 10.4523L11.6819 10.2753Z" fill="var(--fill-0, #E7223A)"/>
</svg>
