<svg preserveAspectRatio="none" width="100%" height="100%" overflow="visible" style="display: block;" viewBox="0 0 11.9771 16.997" fill="none" xmlns="http://www.w3.org/2000/svg">
<path id="Vector" d="M0 10.7413C1.34133 6.77098 4.78006 1.96617 4.74526 1.71645C4.72312 1.56156 5.88096 0.806068 7.19698 0C8.62677 0.0815668 10.0072 0.551555 11.1893 1.35927C11.5031 2.12407 11.7662 2.90864 11.9771 3.70793C11.1482 4.65624 9.44624 5.77208 9.19949 6.58131C8.63322 8.47794 9.03498 11.3387 9.62023 12.5873C10.2055 13.8359 7.96888 15.7484 8.46555 16.8453L8.48453 16.997C7.54505 16.9373 6.61807 16.7502 5.72912 16.4406C3.43558 15.6535 1.05661 13.4124 0 10.7413Z" fill="var(--fill-0, #E6A376)"/>
</svg>
