<svg preserveAspectRatio="none" width="100%" height="100%" overflow="visible" style="display: block;" viewBox="0 0 24.6825 62.0141" fill="none" xmlns="http://www.w3.org/2000/svg">
<path id="Vector" d="M3.09019 61.6593C4.09019 62.094 5.21859 62.1306 6.24468 61.7616C7.27078 61.3926 8.11706 60.6459 8.61051 59.6742C8.9585 59.0199 7.56656 48.0163 10.8408 37.4741C12.1283 30.1658 13.2577 25.9268 13.8936 23.3379C14.3681 27.0427 15.5006 33.3932 15.2697 34.2878C13.0236 42.8827 13.09 54.2846 14.1498 55.2803C15.6145 56.6586 20.0941 57.6069 21.3879 54.9832C22.1662 44.6434 24.6748 33.428 24.6748 33.3079C24.6748 20.2622 24.7634 11.1521 24.3395 6.12285C23.4727 -4.17902 16.127 1.63415 16.127 1.63415C16.127 1.63415 16.184 1.82066 16.282 2.15889L3.50461 2.01665C3.50461 2.01665 -1.32923 8.23759 0.714397 20.591C0.714397 20.591 -0.323233 28.7275 0.714397 36.3457C-0.259963 41.7194 -0.832558 50.5704 3.09019 61.653V61.6593Z" fill="var(--fill-0, #0057B8)"/>
</svg>
