<svg preserveAspectRatio="none" width="100%" height="100%" overflow="visible" style="display: block;" viewBox="0 0 124.237 172.235" fill="none" xmlns="http://www.w3.org/2000/svg">
<path id="Vector" d="M53.3747 90.1524L124.237 131.044L100.65 144.636L101.302 145.009V172.235L29.6484 130.901C29.3171 130.714 28.9999 130.503 28.6993 130.269C28.0065 129.931 27.3042 129.561 26.5956 129.15C11.9169 120.682 0 100.069 0 83.119C0 82.0822 0 79.1013 0 78.5861V7.80068H2.07209C3.38183 6.21635 4.98154 4.89574 6.78573 3.90943C15.8175 -1.30314 30.4836 -1.30314 39.5154 3.90943C41.3164 4.90174 42.9118 6.22772 44.2164 7.81648H46.2885V78.6936C46.3106 82.7871 49.1862 87.7468 52.7262 89.7889L53.3589 90.1492L53.3747 90.1524Z" fill="var(--fill-0, white)"/>
</svg>
