<svg preserveAspectRatio="none" width="100%" height="100%" overflow="visible" style="display: block;" viewBox="0 0 6.27643 10.4701" fill="none" xmlns="http://www.w3.org/2000/svg">
<path id="Vector" d="M0 2.19136V7.30594C0 7.85913 0.449235 8.00453 1.00601 8.00453C1.56279 8.00453 2.01203 7.85913 2.01203 7.30594V2.20084C2.01486 2.14117 2.02332 2.0819 2.03732 2.02382C2.24537 2.05521 2.44716 2.11922 2.63523 2.21349C3.51152 2.71925 4.26128 3.79401 4.26444 4.66014V9.77156C4.26444 10.3247 4.71364 10.4701 5.26725 10.4701C5.82086 10.4701 6.27643 10.3247 6.27643 9.77156V4.65065C6.27643 3.20289 5.11223 1.31575 3.6412 0.465426C2.71429 -0.0687919 1.86334 -0.0972414 1.25594 0.149321C0.531499 0.446459 0.00316351 1.11028 0 2.19136Z" fill="var(--fill-0, #0057B8)"/>
</svg>
