<svg preserveAspectRatio="none" width="100%" height="100%" overflow="visible" style="display: block;" viewBox="0 0 168 39.9984" fill="none" xmlns="http://www.w3.org/2000/svg">
<g id="Layer 1">
<path id="Vector" d="M22.5477 26.8103L18.4901 22.752L22.1614 19.073L29.8871 26.8183L32.7167 29.6535C35.0683 26.6356 36.4194 22.9559 36.5808 19.1297C36.7421 15.3036 35.7056 11.5226 33.6164 8.31659C33.5214 8.17137 33.4248 8.02937 33.3267 7.88737C31.4685 5.20996 28.9346 3.07506 25.984 1.70075C23.5765 0.580669 20.9543 0.000274163 18.3002 0C17.554 0.000243065 16.8085 0.0455062 16.0678 0.135544C12.7669 0.536934 9.6389 1.83786 7.02391 3.89689C5.65492 4.97196 4.44487 6.23617 3.42985 7.65178C3.27534 7.86693 3.12565 8.08208 2.9808 8.29723C1.28472 10.9019 0.275975 13.8956 0.0490779 16.9978C-0.177819 20.1001 0.384561 23.2093 1.68352 26.0341C1.80263 26.2923 1.92763 26.5473 2.05854 26.799C2.26134 27.1895 2.47863 27.5735 2.70235 27.9479C4.64376 31.1072 7.49128 33.6054 10.8723 35.1156C11.7523 35.5104 12.6625 35.8342 13.594 36.0837L16.0565 36.521L16.6038 36.6179L35.6975 39.9984L28.9713 33.2502L22.5477 26.8103ZM10.8755 8.30691H16.0662V11.631L15.4031 12.2958L11.7318 15.9748L10.8755 16.8333V8.30691ZM16.0662 21.9275V26.8087H10.8755V19.7717L13.198 17.4432L16.0662 14.571L16.8709 13.7642L22.3192 8.30691H29.6618L20.5439 17.4432L16.8726 21.1223L16.0662 21.9275Z" fill="var(--fill-0, #888888)"/>
<path id="Vector_2" d="M55.6894 28.0769L48.1729 20.2977V28.0769H43.4474V7.76147H48.1729V16.7816L55.5284 7.76147H61.4643L52.451 18.4501L61.8313 28.0769H55.6894Z" fill="var(--fill-0, #888888)"/>
<path id="Vector_3" d="M73.8769 13.4528V28.077H69.2673L69.4685 26.9797H69.3816C68.5172 27.8462 67.3359 28.3658 65.7505 28.3658C62.3801 28.3658 60.0737 25.8244 60.0737 22.3293V13.4544H64.6254V21.9759C64.6254 23.3329 65.5477 24.2576 66.787 24.2576C67.8815 24.2576 68.8037 23.6799 69.322 22.5826L69.351 13.4544L73.8769 13.4528Z" fill="var(--fill-0, #888888)"/>
<path id="Vector_4" d="M90.2667 7.4436V28.0769H85.657L85.8582 27.0378H85.7133C84.9359 27.7607 83.8109 28.3658 82.1402 28.3658C78.25 28.3658 74.7638 25.1014 74.7638 20.7689C74.7638 16.4363 78.25 13.172 82.1402 13.172C83.8109 13.172 84.9343 13.7496 85.7133 14.5V7.4436H90.2667ZM85.7133 22.8408V18.6808C85.0792 17.8143 84.0137 17.2947 82.7164 17.2947C80.6707 17.2947 79.3461 18.797 79.3461 20.7608C79.3461 22.7246 80.6707 24.2269 82.7164 24.2269C84.0169 24.2269 85.0792 23.7073 85.7133 22.8408Z" fill="var(--fill-0, #888888)"/>
<path id="Vector_5" d="M91.4754 8.7732C91.4754 7.15958 92.7147 5.99939 94.3275 5.97196C95.8839 5.94291 97.2375 7.12731 97.2375 8.7732C97.2375 10.4481 95.9128 11.6035 94.3275 11.6035C92.7421 11.6035 91.4754 10.4481 91.4754 8.7732ZM92.1096 13.4527H96.6613V28.0769H92.1096V13.4527Z" fill="var(--fill-0, #888888)"/>
<path id="Vector_6" d="M121.786 19.2021V28.077H117.233V19.5474C117.233 18.1904 116.31 17.2658 115.015 17.2658C113.862 17.2658 112.94 17.8434 112.422 18.9407V28.077H107.87V19.5474C107.87 18.1904 106.948 17.2658 105.652 17.2658C104.5 17.2658 103.577 17.8434 103.059 18.9407L103.03 28.077H98.5026V13.4528H103.112L102.911 14.55H103.009C103.874 13.6835 105.084 13.1639 106.697 13.1639C108.829 13.1639 110.5 14.1466 111.48 15.7054C112.373 14.145 113.814 13.1639 116.061 13.1639C119.481 13.1639 121.786 15.7054 121.786 19.2021Z" fill="var(--fill-0, #888888)"/>
<path id="Vector_7" d="M138.382 13.4528V28.077H133.772L133.973 27.0378H133.828C133.051 27.7607 131.927 28.3658 130.255 28.3658C126.365 28.3658 122.879 25.1015 122.879 20.7689C122.879 16.4363 126.365 13.172 130.255 13.172C131.926 13.172 133.049 13.7787 133.828 14.5H133.973L133.772 13.4608L138.382 13.4528ZM133.828 22.8408V18.6809C133.194 17.8144 132.129 17.2948 130.831 17.2948C128.786 17.2948 127.451 18.7971 127.451 20.7608C127.451 22.7246 128.778 24.2269 130.831 24.2269C132.129 24.2269 133.194 23.7073 133.828 22.8408Z" fill="var(--fill-0, #888888)"/>
<path id="Vector_8" d="M142.362 22.5229V17.2948H139.423V13.4528H142.621L142.442 9.29285H146.996L146.772 13.4528H151.617V17.2948H146.917V22.268C146.917 23.8283 147.839 24.2898 148.761 24.2898C149.566 24.2898 150.144 24.03 150.807 23.483L152.594 26.891C151.412 27.8551 149.932 28.376 148.409 28.3642C144.754 28.3578 142.362 26.2197 142.362 22.5229Z" fill="var(--fill-0, #888888)"/>
<path id="Vector_9" d="M168 13.4528V28.077H163.39L163.592 27.0378H163.447C162.669 27.7607 161.546 28.3658 159.874 28.3658C155.983 28.3658 152.497 25.1015 152.497 20.7689C152.497 16.4363 155.983 13.172 159.874 13.172C161.544 13.172 162.668 13.7787 163.447 14.5H163.592L163.39 13.4608L168 13.4528ZM163.447 22.8408V18.6809C162.813 17.8144 161.747 17.2948 160.45 17.2948C158.404 17.2948 157.07 18.7971 157.07 20.7608C157.07 22.7246 158.396 24.2269 160.45 24.2269C161.747 24.2269 162.813 23.7073 163.447 22.8408Z" fill="var(--fill-0, #888888)"/>
<path id="Vector_10" d="M97.3163 34.8946H95.2723V36.492H97.5578V37.2988H94.2824V31.869H97.4371V32.6839H95.2723V34.0877H97.3163V34.8946Z" fill="var(--fill-0, #888888)"/>
<path id="Vector_11" d="M103.457 31.5785V36.2015C103.457 36.6049 103.473 37.0406 103.489 37.3068H102.604L102.563 36.6856H102.547C102.419 36.9112 102.23 37.0968 102.003 37.2221C101.776 37.3473 101.519 37.4074 101.26 37.3956C100.326 37.3956 99.5858 36.5968 99.5858 35.3866C99.5858 34.0715 100.399 33.2889 101.34 33.2889C101.879 33.2889 102.266 33.5148 102.443 33.8053H102.459V31.5785H103.457ZM102.467 35.0155C102.467 34.9289 102.459 34.8424 102.443 34.7573C102.404 34.5593 102.297 34.3809 102.142 34.2528C101.986 34.1248 101.791 34.055 101.59 34.0554C100.954 34.0554 100.6 34.6202 100.6 35.3463C100.6 36.0724 100.954 36.5888 101.582 36.5888C101.783 36.5883 101.977 36.5181 102.133 36.3902C102.288 36.2623 102.395 36.0845 102.435 35.8869C102.458 35.7919 102.469 35.6942 102.467 35.5964V35.0155Z" fill="var(--fill-0, #888888)"/>
<path id="Vector_12" d="M105.114 35.6206C105.139 36.3306 105.694 36.6372 106.322 36.6372C106.692 36.647 107.06 36.5868 107.408 36.4597L107.553 37.1455C107.116 37.3123 106.652 37.3944 106.185 37.3875C104.913 37.3875 104.165 36.6049 104.165 35.4028C104.165 34.3136 104.825 33.2889 106.08 33.2889C107.336 33.2889 107.77 34.3378 107.77 35.2011C107.772 35.3416 107.761 35.482 107.738 35.6206H105.114ZM106.837 34.9268C106.845 34.5637 106.684 33.9667 106.032 33.9667C105.42 33.9667 105.163 34.5234 105.123 34.9268H106.837Z" fill="var(--fill-0, #888888)"/>
<path id="Vector_13" d="M109.058 33.3777L109.769 35.4835C109.85 35.7255 109.93 36.024 109.986 36.2499H110.011C110.075 36.024 110.147 35.7336 110.22 35.4754L110.831 33.3777H111.894L110.912 36.0563C110.373 37.5247 110.011 38.1782 109.544 38.5816C109.256 38.8502 108.894 39.0271 108.506 39.0899L108.28 38.2508C108.489 38.1971 108.686 38.104 108.86 37.9765C109.087 37.8159 109.272 37.6028 109.399 37.3553C109.434 37.3021 109.456 37.2412 109.463 37.1778C109.461 37.1096 109.441 37.0431 109.407 36.9841L107.975 33.3777H109.058Z" fill="var(--fill-0, #888888)"/>
<path id="Vector_14" d="M113.919 34.6928C113.919 34.1765 113.902 33.7569 113.886 33.3858H114.759L114.807 33.9909H114.823C114.968 33.7682 115.168 33.5871 115.403 33.4654C115.639 33.3437 115.902 33.2857 116.167 33.297C117.068 33.297 117.817 34.0716 117.817 35.2979C117.817 36.7179 116.924 37.4037 116.03 37.4037C115.815 37.415 115.601 37.3722 115.407 37.2791C115.213 37.1861 115.046 37.0459 114.92 36.8712H114.904V38.9044H113.914V34.6928H113.919ZM114.908 35.6691C114.907 35.7615 114.918 35.8538 114.941 35.9434C114.986 36.1403 115.097 36.316 115.255 36.4419C115.413 36.5679 115.608 36.6367 115.81 36.6372C116.437 36.6372 116.808 36.1128 116.808 35.3383C116.808 34.6444 116.47 34.0797 115.834 34.0797C115.625 34.0836 115.424 34.1583 115.263 34.2917C115.102 34.425 114.992 34.6091 114.949 34.8139C114.924 34.8949 114.91 34.9791 114.908 35.064V35.661V35.6691Z" fill="var(--fill-0, #888888)"/>
<path id="Vector_15" d="M120.727 37.3069L120.662 36.8712H120.638C120.498 37.0412 120.32 37.1768 120.119 37.2677C119.918 37.3586 119.7 37.4024 119.479 37.3957C119.321 37.4049 119.162 37.3815 119.013 37.3268C118.863 37.2721 118.727 37.1874 118.611 37.0778C118.496 36.9682 118.404 36.836 118.342 36.6895C118.279 36.5429 118.247 36.3851 118.248 36.2258C118.248 35.2334 119.125 34.7332 120.574 34.7413V34.6767C120.574 34.4185 120.469 33.9909 119.769 33.9909C119.398 33.9916 119.034 34.0919 118.715 34.2814L118.522 33.6359C118.955 33.3979 119.444 33.2782 119.938 33.289C121.194 33.289 121.548 34.0877 121.548 34.943V36.3629C121.543 36.6786 121.562 36.9941 121.604 37.3069H120.727ZM120.598 35.3867C119.898 35.3706 119.23 35.5239 119.23 36.1209C119.223 36.1967 119.233 36.2731 119.259 36.3447C119.285 36.4162 119.327 36.4812 119.38 36.535C119.434 36.5888 119.499 36.6302 119.57 36.6563C119.641 36.6823 119.718 36.6923 119.793 36.6857C119.962 36.6884 120.128 36.6376 120.267 36.5406C120.405 36.4435 120.51 36.3052 120.566 36.1451C120.588 36.0746 120.599 36.0011 120.598 35.9273V35.3867Z" fill="var(--fill-0, #888888)"/>
<path id="Vector_16" d="M123.56 32.2805C123.563 32.3912 123.533 32.5004 123.474 32.594C123.415 32.6877 123.329 32.7615 123.228 32.8062C123.127 32.8508 123.015 32.8641 122.906 32.8445C122.797 32.8249 122.697 32.7732 122.618 32.696C122.538 32.6188 122.484 32.5197 122.461 32.4113C122.438 32.3029 122.448 32.1901 122.49 32.0875C122.531 31.9848 122.603 31.8969 122.694 31.835C122.786 31.7731 122.894 31.74 123.004 31.7399C123.077 31.7356 123.15 31.7466 123.218 31.772C123.286 31.7974 123.348 31.8368 123.401 31.8877C123.453 31.9385 123.494 31.9997 123.521 32.0673C123.549 32.1349 123.562 32.2075 123.56 32.2805ZM122.505 37.3069V33.3777H123.503V37.3069H122.505Z" fill="var(--fill-0, #888888)"/>
<path id="Vector_17" d="M124.461 34.5476C124.461 34.0957 124.461 33.7165 124.429 33.3777H125.298L125.346 33.9667H125.37C125.5 33.7535 125.684 33.5785 125.903 33.4595C126.122 33.3405 126.369 33.2816 126.618 33.2889C127.302 33.2889 128.01 33.7327 128.01 34.9752V37.3068H127.02V35.0881C127.02 34.5234 126.811 34.0957 126.272 34.0957C126.099 34.0997 125.931 34.1579 125.792 34.262C125.654 34.3662 125.551 34.5112 125.499 34.6766C125.468 34.7813 125.455 34.8903 125.459 34.9994V37.3068H124.461V34.5476Z" fill="var(--fill-0, #888888)"/>
<path id="Vector_18" d="M131.14 33.3777L131.849 35.4835C131.929 35.7255 132.01 36.024 132.066 36.2499H132.09C132.154 36.024 132.227 35.7336 132.299 35.4754L132.911 33.3777H133.973L132.991 36.0563C132.452 37.5247 132.09 38.1782 131.623 38.5816C131.335 38.8502 130.974 39.0271 130.585 39.0899L130.36 38.2508C130.569 38.1971 130.765 38.104 130.939 37.9765C131.166 37.8159 131.351 37.6028 131.478 37.3553C131.514 37.3021 131.536 37.2412 131.543 37.1778C131.54 37.1096 131.521 37.0431 131.486 36.9841L130.049 33.3777H131.14Z" fill="var(--fill-0, #888888)"/>
<path id="Vector_19" d="M138.061 35.306C138.061 36.7502 137.047 37.3956 136.049 37.3956C134.939 37.3956 134.086 36.6291 134.086 35.3705C134.086 34.0796 134.931 33.2889 136.114 33.2889C137.297 33.2889 138.061 34.1119 138.061 35.306ZM135.108 35.3463C135.108 36.1047 135.478 36.6775 136.082 36.6775C136.645 36.6775 137.039 36.1208 137.039 35.3302C137.039 34.717 136.766 34.0151 136.09 34.0151C135.414 34.0151 135.108 34.6928 135.108 35.3463Z" fill="var(--fill-0, #888888)"/>
<path id="Vector_20" d="M142.282 36.1289C142.282 36.5969 142.298 36.9841 142.314 37.3068H141.445L141.396 36.7098H141.38C141.25 36.9255 141.066 37.1026 140.845 37.2232C140.624 37.3437 140.376 37.4032 140.125 37.3956C139.409 37.3956 138.757 36.968 138.757 35.6852V33.3777H139.747V35.5157C139.747 36.1692 139.956 36.5888 140.479 36.5888C140.643 36.5847 140.803 36.532 140.937 36.4373C141.072 36.3425 141.176 36.21 141.235 36.0563C141.272 35.9581 141.291 35.8544 141.292 35.7497V33.3777H142.282V36.1289Z" fill="var(--fill-0, #888888)"/>
<path id="Vector_21" d="M143.067 36.7582C143.061 36.6747 143.073 36.5909 143.101 36.5121C143.129 36.4333 143.174 36.3612 143.231 36.3005C143.289 36.2398 143.358 36.1918 143.435 36.1594C143.512 36.1271 143.595 36.1112 143.679 36.1128C143.83 36.137 143.968 36.2144 144.067 36.3313C144.166 36.4481 144.221 36.5966 144.221 36.7502C144.221 36.9037 144.166 37.0522 144.067 37.169C143.968 37.2859 143.83 37.3633 143.679 37.3875C143.596 37.3889 143.515 37.3735 143.439 37.3421C143.363 37.3108 143.295 37.2642 143.237 37.2053C143.18 37.1463 143.135 37.0763 143.106 36.9994C143.077 36.9225 143.063 36.8404 143.067 36.7582Z" fill="var(--fill-0, #888888)"/>
<path id="Vector_22" d="M144.857 36.7582C144.851 36.6747 144.862 36.5909 144.891 36.5121C144.919 36.4333 144.963 36.3612 145.021 36.3005C145.078 36.2398 145.148 36.1918 145.225 36.1594C145.302 36.1271 145.385 36.1112 145.468 36.1128C145.62 36.137 145.757 36.2144 145.857 36.3313C145.956 36.4481 146.011 36.5966 146.011 36.7502C146.011 36.9037 145.956 37.0522 145.857 37.169C145.757 37.2859 145.62 37.3633 145.468 37.3875C145.386 37.3889 145.305 37.3735 145.229 37.3421C145.153 37.3108 145.084 37.2642 145.027 37.2053C144.97 37.1463 144.925 37.0763 144.896 36.9994C144.866 36.9225 144.853 36.8404 144.857 36.7582Z" fill="var(--fill-0, #888888)"/>
<path id="Vector_23" d="M146.656 36.7582C146.65 36.6747 146.662 36.5909 146.69 36.5121C146.718 36.4333 146.763 36.3612 146.82 36.3005C146.878 36.2398 146.947 36.1918 147.024 36.1594C147.101 36.1271 147.184 36.1112 147.268 36.1128C147.419 36.137 147.557 36.2144 147.656 36.3313C147.756 36.4481 147.81 36.5966 147.81 36.7502C147.81 36.9037 147.756 37.0522 147.656 37.169C147.557 37.2859 147.419 37.3633 147.268 37.3875C147.186 37.3889 147.104 37.3735 147.028 37.3421C146.952 37.3108 146.884 37.2642 146.826 37.2053C146.769 37.1463 146.724 37.0763 146.695 36.9994C146.666 36.9225 146.653 36.8404 146.656 36.7582Z" fill="var(--fill-0, #888888)"/>
<path id="Vector_24" d="M149.167 35.6449L149.151 35.4351C149.111 35.0156 149.256 34.5718 149.634 34.112C149.94 33.7489 150.141 33.4665 150.141 33.1438C150.141 32.8211 149.932 32.579 149.481 32.571C149.194 32.5683 148.914 32.6527 148.676 32.813L148.435 32.103C148.818 31.8803 149.255 31.766 149.698 31.7722C150.696 31.7722 151.147 32.3531 151.147 32.9986C151.147 33.5795 150.793 33.9829 150.447 34.3782C150.133 34.7493 150.004 35.0801 150.02 35.4674V35.6368L149.167 35.6449ZM148.966 36.7664C148.969 36.6458 149.008 36.5289 149.077 36.4302C149.146 36.3315 149.242 36.2554 149.354 36.2115C149.466 36.1676 149.589 36.1577 149.706 36.1831C149.824 36.2086 149.931 36.2682 150.015 36.3546C150.099 36.4409 150.156 36.5502 150.178 36.6687C150.201 36.7872 150.188 36.9096 150.141 37.0207C150.094 37.1318 150.016 37.2267 149.916 37.2934C149.815 37.36 149.698 37.3956 149.577 37.3957C149.495 37.398 149.413 37.3832 149.337 37.3522C149.261 37.3212 149.191 37.2747 149.134 37.2155C149.076 37.1564 149.032 37.0859 149.003 37.0086C148.974 36.9313 148.961 36.8488 148.966 36.7664Z" fill="var(--fill-0, #888888)"/>
<path id="Vector_25" d="M154.229 32.7H152.684V31.869H156.78V32.7H155.219V37.3069H154.229V32.7Z" fill="var(--fill-0, #888888)"/>
<path id="Vector_26" d="M158.953 37.3069L158.889 36.8712H158.86C158.719 37.0412 158.541 37.1768 158.341 37.2677C158.14 37.3586 157.921 37.4024 157.701 37.3957C157.542 37.4049 157.383 37.3815 157.234 37.3268C157.085 37.2721 156.948 37.1874 156.833 37.0778C156.717 36.9682 156.625 36.836 156.563 36.6895C156.501 36.5429 156.469 36.3851 156.469 36.2258C156.469 35.2334 157.347 34.7332 158.795 34.7413V34.6767C158.795 34.4185 158.691 33.9909 157.99 33.9909C157.619 33.9916 157.255 34.0919 156.936 34.2814L156.743 33.6359C157.177 33.3979 157.665 33.2782 158.159 33.289C159.415 33.289 159.769 34.0877 159.769 34.943V36.3629C159.764 36.6786 159.783 36.9941 159.825 37.3069H158.953ZM158.824 35.3867C158.124 35.3706 157.456 35.5239 157.456 36.1209C157.449 36.1967 157.459 36.2731 157.485 36.3447C157.511 36.4162 157.553 36.4812 157.606 36.535C157.66 36.5888 157.725 36.6302 157.796 36.6563C157.868 36.6823 157.944 36.6923 158.019 36.6857C158.188 36.6884 158.354 36.6376 158.493 36.5406C158.631 36.4435 158.736 36.3052 158.792 36.1451C158.814 36.0746 158.825 36.0011 158.824 35.9273V35.3867Z" fill="var(--fill-0, #888888)"/>
<path id="Vector_27" d="M160.731 31.5785H161.729V37.3068H160.731V31.5785Z" fill="var(--fill-0, #888888)"/>
<path id="Vector_28" d="M163.688 35.1042H163.704C163.801 34.9429 163.913 34.7815 164.018 34.6444L164.968 33.3777H166.159L164.71 34.9913L166.368 37.3149H165.153L164.026 35.5803L163.688 35.9756V37.3149H162.698V31.5785H163.688V35.1042Z" fill="var(--fill-0, #888888)"/>
<path id="Vector_29" d="M166.558 36.7663C166.562 36.6464 166.601 36.5302 166.67 36.4324C166.739 36.3346 166.836 36.2595 166.948 36.2164C167.059 36.1733 167.181 36.1643 167.298 36.1903C167.415 36.2164 167.522 36.2765 167.605 36.363C167.687 36.4495 167.743 36.5586 167.765 36.6766C167.786 36.7947 167.772 36.9165 167.725 37.0267C167.678 37.137 167.599 37.2308 167.499 37.2964C167.398 37.362 167.281 37.3965 167.161 37.3957C167.08 37.3979 166.998 37.3829 166.922 37.3517C166.846 37.3205 166.778 37.2738 166.721 37.2146C166.664 37.1554 166.62 37.0849 166.592 37.0077C166.564 36.9305 166.552 36.8483 166.558 36.7663ZM166.783 35.6368L166.638 31.8771H167.685L167.54 35.6368H166.783Z" fill="var(--fill-0, #888888)"/>
</g>
</svg>
