<svg preserveAspectRatio="none" width="100%" height="100%" overflow="visible" style="display: block;" viewBox="0 0 128 40" fill="none" xmlns="http://www.w3.org/2000/svg">
<g id="Frame 234 1" clip-path="url(#clip0_0_49)">
<path id="Vector" d="M41.8182 40V10.9091H48V40H41.8182Z" fill="var(--fill-0, #888888)"/>
<path id="Vector_2" d="M54.1818 40V10.9091H60.3636V40H54.1818Z" fill="var(--fill-0, #888888)"/>
<path id="Vector_3" d="M5.09091 10.9091V0H11.2727V10.9091H16.7273V15.6364H11.2727V32.3636C11.2727 33.5687 12.2495 34.5455 13.4545 34.5455H16.7273V39.6364H12.3636C8.34705 39.6364 5.09091 36.3802 5.09091 32.3636V15.6364H0V10.9091H5.09091Z" fill="var(--fill-0, #888888)"/>
<path id="Vector_4" d="M88.3636 10.9091V0H94.5455V10.9091H100V15.6364H94.5455V32.3636C94.5455 33.5687 95.5222 34.5455 96.7273 34.5455H100V39.6364H95.6364C91.6196 39.6364 88.3636 36.3802 88.3636 32.3636V15.6364H83.2727V10.9091H88.3636Z" fill="var(--fill-0, #888888)"/>
<path id="Vector_5" d="M70.1818 15.6364V39.6364H76.3636V15.6364H81.8182V10.9091H76.3636V7.27273C76.3636 6.06775 77.3404 5.09091 78.5455 5.09091H81.8182V0H77.4545C73.4378 0 70.1818 3.25611 70.1818 7.27273V10.9091H65.0909V15.6364H70.1818Z" fill="var(--fill-0, #888888)"/>
<path id="Vector_6" d="M22.1818 40V10.9091H28.3636V14.1818C29.0909 12.3636 34.1818 10.1818 37.4545 10.1818V15.2727C33.8182 15.2727 28.3636 17.0909 28.3636 21.0909V40H22.1818Z" fill="var(--fill-0, #888888)"/>
<path id="Vector_7" d="M44.7273 8C46.7356 8 48.3636 6.37194 48.3636 4.36364C48.3636 2.35533 46.7356 0.727273 44.7273 0.727273C42.719 0.727273 41.0909 2.35533 41.0909 4.36364C41.0909 6.37194 42.719 8 44.7273 8Z" fill="var(--fill-0, #888888)"/>
<path id="Vector_8" d="M57.0909 8C59.0992 8 60.7273 6.37194 60.7273 4.36364C60.7273 2.35533 59.0992 0.727273 57.0909 0.727273C55.0826 0.727273 53.4545 2.35533 53.4545 4.36364C53.4545 6.37194 55.0826 8 57.0909 8Z" fill="var(--fill-0, #888888)"/>
<path id="Vector_9" d="M105.818 15.6364V10.9091H115.273L119.636 15.6364V23.2727H114.182V15.6364H105.818Z" fill="var(--fill-0, #888888)"/>
<path id="Vector_10" d="M113.818 6.90909V2.18182H123.273L127.636 6.90909V14.5455H122.182V6.90909H113.818Z" fill="var(--fill-0, #888888)"/>
</g>
<defs>
<clipPath id="clip0_0_49">
<rect width="128" height="40" fill="white"/>
</clipPath>
</defs>
</svg>
