<svg preserveAspectRatio="none" width="100%" height="100%" overflow="visible" style="display: block;" viewBox="0 0 251 32" fill="none" xmlns="http://www.w3.org/2000/svg">
<g id="Frame 314">
<path id="Vector" d="M11.0312 31.2985C7.62858 30.9049 4.05581 28.629 2.06527 25.6172C1.3337 24.5049 0.585125 22.7765 0.227848 21.3904C-0.112416 20.0386 -0.0613763 16.6332 0.312914 15.2471C1.3337 11.4824 3.76659 8.47064 7.1352 6.84497C9.17678 5.85246 10.742 5.47598 12.8346 5.47598C14.9272 5.47598 16.5095 5.85246 18.534 6.84497C22.1068 8.59043 24.6418 11.876 25.4754 15.8289C25.7306 16.9755 25.7306 16.8215 25.7476 11.2599L25.7646 5.47598H28.9291H32.1106L32.0255 13.6043C31.9745 18.0707 31.9745 21.6985 32.0255 21.6471C32.0595 21.6129 32.4508 20.8942 32.8932 20.0557C33.3185 19.2172 35.3941 15.5894 37.5037 12.0129L41.3317 5.4931L44.6153 5.47598H47.8818L47.8478 18.4471L47.7967 31.4012L44.7003 31.4525L41.5869 31.4867V23.3241V15.1444L40.5831 16.9755C40.0217 18.0022 37.9121 21.6642 35.8705 25.1552L32.1446 31.4867H28.9631H25.7646L25.7476 25.7199C25.7306 20.4835 25.7136 20.0386 25.5094 20.9626C24.2845 26.5755 19.8611 30.6824 14.4168 31.3156C12.7666 31.5038 12.7496 31.5038 11.0312 31.2985ZM19.2826 27.4482C21.5284 26.7808 22.5151 24.3167 21.7665 21.3049C21.4093 19.9017 20.1843 17.4375 19.1635 16.0685C16.2713 12.2182 12.035 9.49738 8.63236 9.27492C6.96507 9.17225 5.9783 9.41182 5.11063 10.1305C2.37151 12.4065 3.66451 17.9851 7.96885 22.5541C11.6097 26.4044 16.1692 28.3894 19.2826 27.4482Z" fill="var(--fill-0, #888888)"/>
<path id="Vector_2" d="M11.5587 21.5102C9.2789 20.4492 8.92162 17.3177 10.8952 15.7947C11.7458 15.1444 13.311 15.0417 14.3148 15.5551C16.5265 16.6845 16.6626 19.7819 14.57 21.2193C13.8725 21.7156 12.3243 21.8525 11.5587 21.5102Z" fill="var(--fill-0, #888888)"/>
<path id="Vector_3" d="M48.8515 31.3669C48.7835 31.3156 48.7324 25.4632 48.7324 18.3616V5.47598H58.6851H68.6379V8.21396V10.9519H61.9177H55.1974V13.6899V16.4279L60.8628 16.4621L66.5112 16.5134V18.9947V21.476L60.8628 21.5273L55.1974 21.5616V23.8717V26.1819H61.8326H68.4847L68.4337 28.8001L68.3827 31.4012L58.6681 31.4525C53.326 31.4696 48.9026 31.4354 48.8515 31.3669Z" fill="var(--fill-0, #888888)"/>
<path id="Vector_4" d="M86.7377 31.8117C81.5827 31.0588 77.8568 26.9861 77.1082 21.3048C76.0704 13.3989 81.1744 7.01597 88.5411 7.01597C90.7358 7.01597 91.6885 7.23843 93.628 8.16249C94.9891 8.81276 95.4655 9.17212 96.6054 10.3358C97.3539 11.0887 98.1876 12.1154 98.4428 12.6117L98.9191 13.5015L97.6772 14.1347C96.5373 14.7165 96.4352 14.7336 96.2651 14.4598C95.1762 12.5432 93.2197 10.7636 91.4674 10.0962C88.5411 8.96677 84.9853 9.75394 82.7226 12.0128C80.9192 13.8267 80.0005 16.2908 80.0005 19.3368C79.9835 23.0673 81.2254 25.8909 83.6753 27.6363C87.9286 30.6994 93.526 29.2962 96.2821 24.5048C96.2991 24.4705 98.4938 25.6 98.715 25.7711C98.8341 25.8737 97.8643 27.3625 97.1158 28.201C96.163 29.262 94.1725 30.631 92.8284 31.1443C90.8719 31.8973 88.8303 32.1197 86.7377 31.8117Z" fill="var(--fill-0, #888888)"/>
<path id="Vector_5" d="M102.118 31.5037C100.791 30.1519 102.526 27.8759 104.142 28.8513C105.112 29.416 105.316 30.6139 104.585 31.4695C104.21 31.9144 104.023 32 103.377 32C102.764 32 102.526 31.8973 102.118 31.5037Z" fill="var(--fill-0, #888888)"/>
<path id="Vector_6" d="M155.471 31.8288C150.265 31.0074 146.59 26.986 145.842 21.3048C144.804 13.3989 149.908 7.01597 157.274 7.01597C159.469 7.01597 160.422 7.23843 162.361 8.16249C163.722 8.81276 164.199 9.17212 165.339 10.3358C166.087 11.0887 166.921 12.1154 167.176 12.6117L167.652 13.5015L166.462 14.1176C165.798 14.4427 165.237 14.7165 165.186 14.7165C165.152 14.7165 164.93 14.3914 164.692 13.9978C161.8 9.03522 155.369 8.09404 151.456 12.0299C149.653 13.8267 148.734 16.2908 148.734 19.3368C148.717 23.0673 149.959 25.8909 152.409 27.6363C156.662 30.6994 162.259 29.2962 165.015 24.5048C165.032 24.4705 167.227 25.6 167.448 25.7711C167.635 25.9251 166.393 27.6363 165.339 28.6802C163.978 30.0149 162.021 31.1272 160.235 31.5722C158.908 31.9144 156.764 32.0171 155.471 31.8288Z" fill="var(--fill-0, #888888)"/>
<path id="Vector_7" d="M170.528 19.6791V7.35826H171.872H173.216L173.284 12.8C173.352 17.4032 173.403 18.3615 173.658 19.0802C174.1 20.3294 174.764 21.2364 175.717 21.8182C176.482 22.2973 176.669 22.3315 178.082 22.3315C179.902 22.3315 180.821 21.9551 181.501 20.9112C182.471 19.4396 182.505 19.1829 182.573 13.0567L182.641 7.35826H183.985H185.329V13.0738C185.329 16.2053 185.261 19.1829 185.159 19.6791C184.734 21.9037 183.526 23.5465 181.671 24.4192C180.736 24.8642 180.48 24.8984 178.694 24.8984C176.891 24.8984 176.652 24.8642 175.768 24.4192C175.206 24.1454 174.475 23.5807 174.015 23.0674L173.25 22.2118V27.1059V32H171.889H170.528V19.6791Z" fill="var(--fill-0, #888888)"/>
<path id="Vector_8" d="M236.199 19.6791V7.35826H237.543H238.887L238.972 12.7144C239.057 18.6524 239.142 19.2684 240.197 20.723C241.03 21.8695 242.034 22.3315 243.769 22.3315C246.049 22.3315 247.189 21.5101 247.887 19.3882C248.125 18.7208 248.176 17.523 248.244 12.9711L248.312 7.35826H249.656H251V13.1764C251 19.0973 250.915 20.0727 250.302 21.5101C249.86 22.554 248.567 23.8716 247.444 24.4192C246.56 24.8642 246.338 24.8984 244.45 24.8984C242.561 24.8984 242.34 24.8642 241.439 24.4192C240.877 24.1454 240.146 23.5807 239.686 23.0674L238.921 22.2118V27.1059V32H237.56H236.199V19.6791Z" fill="var(--fill-0, #888888)"/>
<path id="Vector_9" d="M110.301 27.2941V24.6417H108.855H107.409V23.3583V22.0749H108.838H110.284L110.335 16.2225C110.386 10.4727 110.386 10.3358 110.777 9.54867C111.271 8.53904 112.292 7.63209 113.329 7.28984C114.452 6.89626 116.664 6.93048 117.532 7.35829C118.723 7.923 118.706 7.87166 118.127 9.12086L117.6 10.2503L117.004 9.89091C116.528 9.61712 116.205 9.56578 115.388 9.61712C114.537 9.68556 114.282 9.77113 113.857 10.216C113.568 10.4898 113.278 11.0203 113.193 11.3968C113.108 11.7562 113.023 14.323 113.023 17.061V22.0578L115.626 22.1091L118.212 22.1604V23.3583V24.5562L115.626 24.6075L113.023 24.6588V27.2941V29.9466H111.662H110.301V27.2941Z" fill="var(--fill-0, #888888)"/>
<path id="Vector_10" d="M223.167 24.6417C218.913 23.2727 216.531 18.6866 217.569 13.8096C218.539 9.17216 222.452 6.43419 227.233 7.03312C229.546 7.32403 231.996 8.9497 233.102 10.9347L233.494 11.6363L232.252 12.2182C231.18 12.7144 230.993 12.7657 230.839 12.5433C230.04 11.3454 229.615 10.8663 228.917 10.4214C227.828 9.73686 226.977 9.53152 225.48 9.61708C223.303 9.75398 221.72 10.8663 220.734 12.9882C220.325 13.8609 220.291 14.1347 220.291 16C220.291 17.8652 220.325 18.139 220.734 19.0117C221.329 20.2609 222.18 21.2021 223.303 21.8182C224.017 22.2117 224.46 22.3315 225.565 22.3829C227.692 22.4855 229.257 21.7668 230.414 20.1754L230.873 19.5251L232.047 20.0727C232.694 20.3636 233.238 20.6203 233.272 20.6374C233.442 20.7401 232.643 21.9208 231.86 22.6909C230.295 24.2823 228.407 24.9839 225.838 24.9668C224.715 24.9668 223.881 24.8642 223.167 24.6417Z" fill="var(--fill-0, #888888)"/>
<path id="Vector_11" d="M102.084 24.5219C102.016 24.4706 101.964 20.569 101.964 15.8802V7.35826H103.326H104.687V9.97644C104.687 11.3968 104.738 15.2984 104.806 18.6182L104.908 24.6417H103.547C102.798 24.6417 102.135 24.5904 102.084 24.5219Z" fill="var(--fill-0, #888888)"/>
<path id="Vector_12" d="M119.386 24.3679C119.454 24.2139 121.104 20.3294 123.078 15.7433L126.651 7.39252L125.936 5.64707C124.762 2.78931 123.826 2.19038 121.7 2.90909C121.121 3.09733 120.611 3.25134 120.594 3.21712C120.492 3.11444 119.658 1.14653 119.658 1.00963C119.658 0.787167 122.312 0 123.044 0C124.881 0 126.344 0.95829 127.484 2.89198C128.012 3.81605 136.671 24.1968 136.671 24.5562C136.671 24.6075 136.008 24.6246 135.208 24.6075L133.745 24.5562L130.904 17.677C129.356 13.8952 128.029 10.8492 127.961 10.9177C127.893 10.9861 126.583 14.0834 125.051 17.7968L122.244 24.5562L120.764 24.6075C119.42 24.6589 119.284 24.6246 119.386 24.3679Z" fill="var(--fill-0, #888888)"/>
<path id="Vector_13" d="M188.442 18.6182C188.494 14.9732 188.596 12.2866 188.715 11.8417C189.242 9.82243 190.28 8.48767 191.93 7.66628C193.019 7.11868 193.138 7.10157 195.112 7.10157C196.932 7.10157 197.238 7.15291 198.004 7.52938C198.48 7.75184 199.212 8.31655 199.654 8.76147C200.539 9.66842 200.641 9.61708 200.641 8.19676V7.35826H201.917H203.193V16V24.6417H201.832H200.471V19.5936C200.471 16.5305 200.403 14.2032 200.284 13.6556C200.011 12.3722 199.399 11.2599 198.599 10.5754C197.8 9.87377 196.949 9.58286 195.673 9.58286C193.785 9.58286 192.509 10.3871 191.76 12.047C191.386 12.9026 191.369 13.0738 191.318 18.7893L191.267 24.6417H189.804H188.357L188.442 18.6182Z" fill="var(--fill-0, #888888)"/>
<path id="Vector_14" d="M207.446 16V7.35826H208.79H210.151L210.202 12.8L210.253 18.2246L210.73 19.2C211.529 20.8428 212.993 21.7497 215.255 22.0064L216.293 22.1262V23.3754V24.6417H215.647C214.83 24.6417 213.333 24.2139 212.55 23.7519C212.227 23.5465 211.546 22.9989 211.07 22.5198L210.168 21.6642V23.1529V24.6417H208.807H207.446V16Z" fill="var(--fill-0, #888888)"/>
</g>
</svg>
