<svg preserveAspectRatio="none" width="100%" height="100%" overflow="visible" style="display: block;" viewBox="0 0 25 25" fill="none" xmlns="http://www.w3.org/2000/svg">
<g id="ic:sharp-copyright">
<path id="Vector" d="M10.5 11.3125C10.5521 10.9687 10.6667 10.6667 10.8125 10.4062C10.9583 10.1458 11.1667 9.92708 11.4271 9.76042C11.6771 9.60417 11.9896 9.53125 12.375 9.52083C12.6146 9.53125 12.8333 9.57292 13.0312 9.65625C13.2396 9.75 13.4271 9.875 13.5729 10.0312C13.7187 10.1875 13.8333 10.375 13.9271 10.5833C14.0208 10.7917 14.0625 11.0208 14.0729 11.25H15.9375C15.9167 10.7604 15.8229 10.3125 15.6458 9.90625C15.4687 9.5 15.2292 9.14583 14.9167 8.85417C14.6042 8.5625 14.2292 8.33333 13.7917 8.16667C13.3542 8 12.875 7.92708 12.3437 7.92708C11.6667 7.92708 11.0729 8.04167 10.5729 8.28125C10.0729 8.52083 9.65625 8.83333 9.32292 9.23958C8.98958 9.64583 8.73958 10.1146 8.58333 10.6562C8.42708 11.1979 8.33333 11.7604 8.33333 12.3646V12.6458C8.33333 13.25 8.41667 13.8125 8.57292 14.3542C8.72917 14.8958 8.97917 15.3646 9.3125 15.7604C9.64583 16.1562 10.0625 16.4792 10.5625 16.7083C11.0625 16.9375 11.6562 17.0625 12.3333 17.0625C12.8229 17.0625 13.2812 16.9792 13.7083 16.8229C14.1354 16.6667 14.5104 16.4479 14.8333 16.1667C15.1562 15.8854 15.4167 15.5625 15.6042 15.1875C15.7917 14.8125 15.9062 14.4167 15.9167 13.9896H14.0521C14.0417 14.2083 13.9896 14.4062 13.8958 14.5937C13.8021 14.7812 13.6771 14.9375 13.5208 15.0729C13.3646 15.2083 13.1875 15.3125 12.9792 15.3854C12.7812 15.4583 12.5729 15.4792 12.3542 15.4896C11.9792 15.4792 11.6667 15.4062 11.4271 15.25C11.1667 15.0833 10.9583 14.8646 10.8125 14.6042C10.6667 14.3437 10.5521 14.0312 10.5 13.6875C10.4479 13.3437 10.4167 12.9896 10.4167 12.6458V12.3646C10.4167 12 10.4479 11.6562 10.5 11.3125ZM12.5 2.08333C6.75 2.08333 2.08333 6.75 2.08333 12.5C2.08333 18.25 6.75 22.9167 12.5 22.9167C18.25 22.9167 22.9167 18.25 22.9167 12.5C22.9167 6.75 18.25 2.08333 12.5 2.08333ZM12.5 20.8333C7.90625 20.8333 4.16667 17.0937 4.16667 12.5C4.16667 7.90625 7.90625 4.16667 12.5 4.16667C17.0937 4.16667 20.8333 7.90625 20.8333 12.5C20.8333 17.0937 17.0937 20.8333 12.5 20.8333Z" fill="var(--fill-0, white)"/>
</g>
</svg>
